<svg width="50" height="50" viewBox="0 0 50 50" fill="none" xmlns="http://www.w3.org/2000/svg">
<path d="M40 6.66675H10C8.15833 6.66675 6.66667 8.15841 6.66667 10.0001V40.0001C6.66667 41.8417 8.15833 43.3334 10 43.3334H40C41.8417 43.3334 43.3333 41.8417 43.3333 40.0001V10.0001C43.3333 8.15841 41.8417 6.66675 40 6.66675ZM18.2567 36.6667H13.34V20.8467H18.2567V36.6667ZM15.7483 18.5851C14.1633 18.5851 12.8817 17.3001 12.8817 15.7184C12.8817 14.1367 14.165 12.8534 15.7483 12.8534C17.3283 12.8534 18.6133 14.1384 18.6133 15.7184C18.6133 17.3001 17.3283 18.5851 15.7483 18.5851ZM36.6733 36.6667H31.76V28.9734C31.76 27.1384 31.7267 24.7784 29.205 24.7784C26.6467 24.7784 26.2533 26.7767 26.2533 28.8401V36.6667H21.34V20.8467H26.0567V23.0084H26.1233C26.78 21.7651 28.3833 20.4534 30.775 20.4534C35.7533 20.4534 36.6733 23.7301 36.6733 27.9901V36.6667Z" fill="black"/>
</svg>
