<svg width="50" height="50" viewBox="0 0 50 50" fill="none" xmlns="http://www.w3.org/2000/svg">
<path d="M46.137 6.55208C45.387 5.91608 44.209 5.82508 42.991 6.31408H42.989C41.708 6.82808 6.728 21.8321 5.304 22.4451C5.045 22.5351 2.783 23.3791 3.016 25.2591C3.224 26.9541 5.042 27.6561 5.264 27.7371L14.157 30.7821C14.747 32.7461 16.922 39.9921 17.403 41.5401C17.703 42.5051 18.192 43.7731 19.049 44.0341C19.801 44.3241 20.549 44.0591 21.033 43.6791L26.47 38.6361L35.247 45.4811L35.456 45.6061C36.052 45.8701 36.623 46.0021 37.168 46.0021C37.589 46.0021 37.993 45.9231 38.379 45.7651C39.694 45.2251 40.22 43.9721 40.275 43.8301L46.831 9.75308C47.231 7.93308 46.675 7.00708 46.137 6.55208ZM22 32.0001L19 40.0001L16 30.0001L39 13.0001L22 32.0001Z" fill="black"/>
</svg>
